<svg width="64" height="73" viewBox="0 0 64 73" fill="none" xmlns="http://www.w3.org/2000/svg">
<path d="M32.0022 23.7953H30.4042H28.802H27.204V25.3836H25.6017H24.0038H22.4015V23.7953H20.7993H19.2013H17.5991H16.0011V25.3836V26.972H17.5991V28.5561H19.2013V30.1444H20.7993V31.7285H22.4015V30.1444V31.7285H24.0038H25.6017H27.204V30.1444H28.802H30.3999V28.5561H28.802H30.3999H32.0022V26.972V25.3836H33.6001V23.7953H32.0022Z" fill="#221F1F"/>
<path d="M62.4063 15.8664H43.205V12.694H41.6028V11.1056H40.0048V9.51726H38.4069V7.9289H36.8046V6.34055H35.2067V4.75219H32.0064V3.16383H17.6033V4.75219H14.4031V6.34055H12.8009V4.75219H11.2029V3.16383H9.60064V1.57548H6.40043V0H3.20021V1.58836H1.59796V3.17671H0V6.34913H1.59796V7.93749H3.20021V11.1099H4.79817V12.6983H6.40043V15.8707H4.79817V28.5647H6.40043V33.3254H7.99839V34.9138H9.59635V36.5021H11.1986V38.0905H14.3988V39.6789H17.599H16.0011V41.2672H20.7992V63.4784H14.3988V65.0668H12.7966V71.4116H14.3988V73H33.6001V71.4116H35.2024V65.0668H33.6001V63.4784H28.8019V55.5452H36.8003V53.9569H38.4026V52.3685H40.0005V47.6078H38.4026V46.0194H28.8019V41.2586H30.4042V39.6703H35.2024V38.0819H36.8003V36.4936H38.4026V34.9052H40.0005V33.3168H41.5985V31.7285H43.2008V26.9677H46.401V28.5561H49.6012V30.1444H56.0016V28.5561H57.5996V26.9677H59.2018V25.3794H60.7998V23.791H64V17.4462H62.402V15.8578L62.4063 15.8664ZM40.0005 22.2112V23.7996H38.3983V25.3879V28.5604H36.796V31.7328H35.1981V33.3211H33.5958V34.9095H30.3956V36.4979H17.5947V34.9095H15.9968V33.3211H14.3945V31.7328H12.7966V30.1444H11.1986V28.5561V26.9677H9.59635V17.4505H11.1986V14.278H12.7966V12.6897H14.3988V11.1013H15.9968V9.51297H17.5947V7.92461H30.3956V9.51297H33.5958V11.1013H35.1981V12.6897H36.796V15.8621H38.3983V19.0345V20.6229H40.0005V22.2112ZM59.2061 22.2112H57.6039V23.7996H56.0059V25.3879H54.4079V26.9763H51.2077V25.3879H49.6055V23.7996H48.0075H46.4096V19.0388H57.6082V20.6272H59.2104V22.2155L59.2061 22.2112Z" fill="#221F1F"/>
<path d="M32.0022 17.4505V15.8664H30.4042H30.3999V14.278H28.802H27.204H25.6017V12.694H24.0038H22.4015V14.278H20.7993H19.2013V15.8664H17.5991V17.4505H16.0011V19.0388V20.6229H17.5991H19.2013H20.7993H22.4015V19.0388H24.0038H25.6017V20.6229H27.204H28.802H30.4042H32.0022H33.6001V19.0388H32.0022V17.4505Z" fill="#221F1F"/>
<path d="M19.2013 36.4893H30.4042V34.9009H33.6044V33.3126H35.2067V31.7242H36.8047V28.5518H38.4069V23.791H40.0049V20.6186H38.4069V15.8578H36.8047V12.6854H35.2067V11.0971H33.6044V9.50871H30.4042V7.92035H17.6034V9.50871H16.0054V11.0971H14.4075V12.6854H12.8052V14.2738H11.2072V17.4462H9.60498V26.9635H11.2072V30.1359H12.8052V31.7242H14.4075V33.3126H16.0054V34.9009H17.6034V36.4893H19.2056H19.2013ZM16.0011 19.0388V17.4505H17.5991V15.8621H19.2013V14.2738H22.4015V12.6854H25.6018V14.2738H30.4042V15.8621H32.0022V19.0346H33.6001V20.6229H25.6018V19.0346H22.4015V20.6229H16.0011V19.0346V19.0388ZM16.0011 26.972V23.7996H22.4015V25.388H27.1997V23.7996H33.6001V25.388H32.0022V28.5604H30.4042V30.1488H27.204V31.7371H20.8036V30.1488H19.2056V28.5604H17.6034V26.972H16.0054H16.0011Z" fill="white"/>
<path d="M57.6039 19.0388H56.0059H54.4037H52.8014H51.2034H49.6012H48.0032H46.4053V20.6229V22.2112V23.7953H48.0032H49.6012V25.3837H51.2034V26.972H52.8014H54.4037V25.3837H56.0059V23.7953H57.6039V22.2112H59.2061V20.6229H57.6039V19.0388Z" fill="white"/>
</svg>
